PathFileType	4	(X/Y/Z)	pose_F01_0-95.trc
DataRate	CameraRate	NumFrames	NumMarkers	Units	OrigDataRate	OrigDataStartFrame	OrigNumFrames
30	30	6	21	m	30	71	95
Frame#	Time	CHip			RHip			RKnee			RAnkle			RBigToe			RSmallToe			RHeel			LHip			LKnee			LAnkle			LBigToe			LSmallToe			LHeel			Neck			Nose			RShoulder			RElbow			RWrist			LShoulder			LElbow			LWrist			
		X1	Y1	Z1	X2	Y2	Z2	X3	Y3	Z3	X4	Y4	Z4	X5	Y5	Z5	X6	Y6	Z6	X7	Y7	Z7	X8	Y8	Z8	X9	Y9	Z9	X10	Y10	Z10	X11	Y11	Z11	X12	Y12	Z12	X13	Y13	Z13	X14	Y14	Z14	X15	Y15	Z15	X16	Y16	Z16	X17	Y17	Z17	X18	Y18	Z18	X19	Y19	Z19	X20	Y20	Z20	X21	Y21	Z21	
71	2.3666666666666667	-0.1597989189146729	1.8407944887354113	-0.5865673868365087	-0.17445611487952023	1.8356333590591578	-0.5306201765305342	-0.1683845726647615	1.710842414965032	-0.5355379299235542	-0.13943834820129916	1.596166256019416	-0.49500679107237744	-0.16683885220786288	1.5548756640846666	-0.5090785940277305	-0.16414777483478285	1.5581546299966804	-0.47708018643757577	-0.12898918055479086	1.5856294302959184	-0.48738474694777856	-0.14695230992805636	1.846643932931422	-0.6432653499765159	-0.16030802169448924	1.717399822439966	-0.6103675541112362	-0.12427060924597817	1.5989998839630541	-0.5996790405076483	-0.15572943845220252	1.55339083130092	-0.5911990956602058	-0.14404951059973337	1.5593358897292116	-0.6161752623895895	-0.11374948731766939	1.589803997903855	-0.588223425059275	-0.13780212252319743	1.995012726078684	-0.6000522152759988	-0.1686263205285496	2.058850338565259	-0.6072160479130245	-0.15672954714021226	1.98711356363077	-0.5106300055098533	-0.16807517202124544	1.9165161857668778	-0.45158977660133315	-0.20049581024952617	1.9546939167936033	-0.47960405996000566	-0.11843044007523078	2.0019804845968348	-0.686637436092293	-0.10749217535162557	1.9860093625899788	-0.7840127912955661	-0.11034509655561181	2.0407142415792774	-0.8215065585202693
72	2.4	-0.16001694777854794	1.8370802654117333	-0.5894921396845831	-0.17408000401747573	1.8334606720606481	-0.5305769044153273	-0.19437330281648144	1.7082034608450531	-0.5331274432166266	-0.14244009751514472	1.6021309259219403	-0.4843379987437718	-0.17152484430452292	1.5619929359637723	-0.49733346075866514	-0.16797857650191342	1.5667606107446217	-0.4708354612477626	-0.13086314078681993	1.5942867240506184	-0.483179189029252	-0.14226726884416085	1.8385106000082259	-0.6470972216354642	-0.15753934704143913	1.7098773475413467	-0.6125486965570833	-0.11995752243983018	1.5896353035967865	-0.5983969843610111	-0.15529535734043515	1.5490147343426928	-0.5949466981606647	-0.14263905142190555	1.5548150361385338	-0.6165160953235008	-0.10604862767948743	1.578860062508763	-0.586112433746403	-1.7331180733211753	1.8905373267877437	1.1502427848532295	-0.16854109158648306	2.0568334556966357	-0.6062171830484123	-0.15825285665196734	1.9809131218030533	-0.5151081955578439	-0.15802175255677517	1.9043455193599583	-0.4699920195121388	-0.1902316900765172	1.9217836695386152	-0.48381787170364216	-0.11981510851783218	2.0034159901981328	-0.6919459256214747	-0.10483893965187599	2.0153180387503897	-0.8048021887016101	-0.11712440907137799	2.0312301353060476	-0.8154206961365816
73	2.433333333333333	-0.16332007235507762	1.8288202521607306	-0.5856618082223156	-0.17602949281804675	1.8286948903318463	-0.5326846661213082	-0.20296597739750646	1.7091232130930443	-0.5238319155325158	-0.16235622814475095	1.6005299929754477	-0.4716361415390511	-0.1902620636635692	1.5590109586725613	-0.48615076669574164	-0.17926408388505571	1.566267274349883	-0.47204471440400214	-0.14531911426416788	1.5912804036161083	-0.4712115306170342	-0.14569273497834695	1.8308978671538152	-0.6433022266410937	-0.1505884135738341	1.7083894870320453	-0.6195118633101165	-0.12008228571344155	1.5881581224360213	-0.5978560806454459	-0.1529052812406447	1.5505595428086818	-0.5977546531952979	-0.14137881709301287	1.555632978084774	-0.6142387696849657	-0.10688601887580988	1.576141863909213	-0.5890093361128197	-0.14155892599679198	1.9868799042173562	-0.6022349596027811	-0.17085395909888468	2.0554378403961264	-0.6047941189178128	-0.15454914394883554	1.9798876379262451	-0.5200883025978728	-0.13974774070937215	1.9083983000444416	-0.4889508989080178	-0.1754726611179134	1.9131416844206754	-0.483646829170809	-0.12961921282565472	1.9953323857049596	-0.6851245820622747	-0.11612556946928375	2.0177914661717766	-0.7939054610851706	-0.12390372158714415	2.0217460290328177	-0.8093348337528938
74	2.466666666666667	-0.16507225696172267	1.8458418740801006	-0.5856247877534173	-0.17894247490327952	1.8443681750891947	-0.527325921409437	-0.1948006716127523	1.714724503705181	-0.5158888379719836	-0.16423512248671995	1.5979869033640872	-0.48691203546125356	-0.190158478620729	1.5589707032103626	-0.5036205913859865	-0.19054959126819804	1.5657739379551445	-0.4732539675602417	-0.15093726772015909	1.594281089014216	-0.4883728022605223	-0.14951685696337258	1.84627056381137	-0.640745719873533	-0.15607817282291997	1.721758190247002	-0.6152600204965775	-0.12206773489117755	1.5950826541780079	-0.5970883097995728	-0.1519415809223	1.5506370518545938	-0.5942613155328192	-0.1417510754873871	1.5582376476977653	-0.6136324952958059	-0.11508047728374018	1.5874568372672915	-0.5902115446318896	-0.1427053076355222	1.997766134581289	-0.598745829339121	-0.17550569299397678	2.06347619658105	-0.603838137728893	-0.15759771714943815	1.9923600383148052	-0.5149482088666681	-0.15138910691120086	1.9147158957866168	-0.4758926879646753	-0.1893239827375095	1.929950255588772	-0.4884389439496646	-0.12867273790186956	2.0027212111294608	-0.6829758150971867	-1.266695539051266	1.894477222616778	0.41402608603123864	-0.13068303410291032	2.012261922759588	-0.8032489713692061
75	2.5	-0.16822094496515613	1.8471376271910946	-0.5780755313832626	-0.18292914876449903	1.8472379065606332	-0.5142106298400564	-0.1836585170109082	1.7103326993716796	-0.514101930125063	-0.16607875015998722	1.5879067919579353	-0.4842590013318711	-0.19241944800275187	1.5479530815390043	-0.5009540752170915	-0.19054959126819804	1.5657739379551445	-0.4732539675602417	-0.1548977462348689	1.5802081393504293	-0.49143501081747726	-0.15280558290547627	1.850084052859885	-0.6335241442118995	-0.16250490536055584	1.7198048350461375	-0.6081864280626306	-0.12569395287528834	1.6031018193478208	-0.5943832592113657	-0.15185370339441726	1.5533936637057655	-0.5945677794696841	-0.1405337378637688	1.5623608436139513	-0.6114655330858059	-0.11394241387144763	1.597582919810179	-0.5885628308797073	-0.14397209603094716	2.0011175817502993	-0.5940762354099175	-0.17534283399119002	2.067193382237668	-0.6040012275475021	-0.16164970063543155	1.9970865164438307	-0.5111635553005571	-0.16428013067540506	1.9154831757666402	-0.4652237413023637	-0.2091032088448804	1.9523282421263948	-0.4702453662278011	-0.12198894881211063	2.0051717166856102	-0.6791222666625224	-0.11284351932668638	1.9416696159989457	-0.7514765587225065	-1.2705744836861852	1.9021984082345362	0.4107796122482092
76	2.533333333333333	-0.16982253356801094	1.838535524574729	-0.5711232512368332	-0.18345082417526934	1.8360808671415783	-0.5034844883745965	-0.17991459655792	1.7056948253697501	-0.5089651643804604	-0.15957719365957404	1.5804544715108089	-0.4856231546690897	-0.19312889794503627	1.543426782455608	-0.4949917217559452	-0.19054959126819804	1.5657739379551445	-0.4732539675602417	-0.1497638657997827	1.5739385072320673	-0.4876157287345255	-0.1554547559453711	1.8400453330463948	-0.629379414683094	-0.18500870303092273	1.715209138804543	-0.6132517640321123	-0.12503891517753765	1.6168581527048584	-0.5921291305622011	-0.1484698498898046	1.5700890893510708	-0.5959733721049573	-0.13712780677490546	1.5765951818800983	-0.6171311227285362	-0.11133132517433884	1.6157839568727652	-0.5806893824702897	-0.1486239480181517	1.9912368443385582	-0.5886430308755867	-0.17765804096003254	2.0608500565431482	-0.6011106981246859	-0.16716847733647097	1.9886358062853624	-0.5093130426266552	-0.18721538545396738	1.9126167365657443	-0.43411054630765605	-0.22498347114039258	1.9603888906760532	-0.43832393543100623	-0.12469013318647774	1.9919737280453513	-0.6753257944291889	-0.10844553927163705	1.9133693827671996	-0.69271951352779	-0.11754895445947923	1.9333613590481753	-0.7456384334534326
